<svg width="27" height="27" viewBox="0 0 27 27" fill="none" xmlns="http://www.w3.org/2000/svg">
<path d="M10.2386 26.7008V17.6902H7.45537V13.5497H10.2386V11.7656C10.2386 7.1531 12.3176 5.01564 16.8289 5.01564C17.28 5.01564 17.9032 5.06307 18.4804 5.13194C18.9127 5.17659 19.3415 5.25014 19.764 5.35212V9.10652C19.5197 9.08365 19.2747 9.07009 19.0294 9.06587C18.7546 9.05871 18.4797 9.05532 18.2048 9.05571C17.4094 9.05571 16.7884 9.1641 16.3204 9.40461C16.0058 9.56304 15.7413 9.80622 15.5565 10.1069C15.2662 10.5812 15.1358 11.2304 15.1358 12.0852V13.5497H19.5446L19.1104 15.9243L18.7875 17.6902H15.1358V27C21.8205 26.1893 27 20.477 27 13.5497C27 6.06687 20.9554 0 13.5 0C6.04463 0 0 6.06687 0 13.5497C0 19.9045 4.35825 25.2363 10.2386 26.7008Z" fill="#898989"/>
</svg>
