<svg width="105" height="56" viewBox="0 0 105 56" fill="none" xmlns="http://www.w3.org/2000/svg">
<path d="M37.1668 0.257448C35.3678 0.617243 33.6768 1.48075 32.1656 2.74003C20.94 12.1667 8.63503 23.1044 8.3472 23.9679C7.87946 25.3352 8.45514 26.5225 10.0742 27.314C11.2256 27.9257 13.0245 27.9617 31.8058 27.9617C47.9966 27.9617 52.2062 27.8537 52.0623 27.4939C51.9904 27.2781 50.3713 24.7235 48.5003 21.8452C44.2907 15.4048 44.1468 15.117 44.3987 14.1096C44.7585 12.7423 53.6094 4.50303 55.7682 3.60354C57.2074 2.95591 61.1651 3.09983 61.9927 3.78344C62.2805 4.0353 65.1589 8.4248 68.361 13.4979C71.5632 18.571 74.6575 23.1764 75.2331 23.7161C76.0966 24.5436 76.6363 24.7235 78.0755 24.7235C79.047 24.7235 80.3062 24.5076 80.8459 24.2558C81.8534 23.824 104.772 4.07128 104.988 3.45962C105.204 2.95591 102.398 3.09983 100.707 3.6755C99.8431 3.99932 98.368 4.8988 97.4325 5.69035C95.3817 7.38139 93.6906 8.17294 91.9276 8.17294C89.9128 8.17294 88.6895 7.30943 87.3942 5.04272C85.8831 2.34426 85.3793 1.76859 83.6523 0.83312C82.2132 0.0775509 81.9613 0.0775509 60.4455 0.00559044C48.4644 -0.0303879 37.9943 0.113529 37.1668 0.257448Z" fill="white"/>
<path d="M52.8539 28.5733C53.0338 28.9331 54.8328 31.7395 56.8117 34.7978C61.2012 41.5259 61.2371 41.7418 58.5387 44.3323C53.3576 49.2256 50.3713 51.7441 49.184 52.2478C47.6369 52.8955 44.6506 52.9674 43.3913 52.3918C42.7797 52.1039 40.405 48.6859 36.1594 41.9217C32.6694 36.4169 29.5032 31.7395 29.1434 31.5596C28.2439 31.0559 25.2216 31.1279 23.9983 31.6676C22.775 32.2073 0 51.96 0 52.4997C0 53.0754 3.63393 52.6076 5.03713 51.888C5.68476 51.5642 7.08797 50.5928 8.13137 49.7293C10.1822 48.0382 11.8013 47.5345 13.9241 47.8583C15.5791 48.1462 16.1908 48.7218 17.9538 51.7081C20.4723 55.9537 18.6014 55.6659 45.1903 55.6659C64.5113 55.6659 68.1092 55.5939 69.4765 55.1262C70.6278 54.7304 74.0459 51.996 82.3931 44.8361C95.9574 33.1787 96.3532 32.8189 96.641 31.6676C96.9648 30.3723 96.1733 29.149 94.5542 28.5373C93.3669 28.0336 90.3806 27.9617 72.8225 27.9617C53.5735 27.9617 52.5301 27.9976 52.8539 28.5733Z" fill="white"/>
</svg>
