<svg width="417" height="43" viewBox="0 0 417 43" fill="none" xmlns="http://www.w3.org/2000/svg">
<g filter="url(#filter0_f_31_10)">
<path d="M43.509 5.45723C40.314 6.41572 37.6941 9.0356 34.9464 14.0198C32.1987 18.8761 31.4959 22.1989 33.0294 23.1574C33.4128 23.413 42.5505 23.7964 53.2217 23.9881C66.3211 24.1798 72.7749 24.5632 72.9027 25.0105C73.0305 25.3939 72.5193 26.4802 71.8165 27.3748L70.4746 29.1001H43.8285C18.4604 29.1001 17.0546 29.164 15.1376 30.378C13.0928 31.5921 11.8787 34.1481 12.7094 35.4261C12.965 35.9373 24.7864 36.129 50.1545 36.129C81.657 36.129 87.4718 36.0012 89.0693 35.1705C90.2834 34.5315 91.817 32.5506 93.6062 29.1001L96.3539 23.9881H113.479C133.032 23.9881 131.946 23.5408 128.623 29.739C125.045 36.4485 120.061 35.8095 176.484 36.0012C223.961 36.129 225.942 36.0651 228.242 34.9149C229.52 34.2759 231.246 32.9979 231.949 32.1672C233.227 30.8253 235.399 27.0553 235.399 26.2246C235.399 26.0329 233.227 25.9051 230.543 25.9051C225.75 25.9051 225.623 25.969 223.578 28.2055L221.469 30.5058L206.325 30.4419C195.973 30.4419 190.861 30.1863 190.286 29.6751C188.753 28.3972 189.264 26.1607 192.459 20.4097C194.823 16.0007 196.101 14.4671 198.274 12.9974L201.149 11.2082H216.421H231.629L231.437 13.253L231.246 15.3617L236.422 15.5534C241.342 15.7451 241.598 15.6812 242.3 14.1476C243.259 12.0389 244.601 11.7833 252.269 11.975C257.253 12.1028 258.723 12.3584 259.234 13.1891C259.745 14.0198 258.723 16.384 254.633 24.052C251.758 29.4195 249.521 34.2759 249.585 34.7871C249.841 36.2568 253.291 36.3846 255.016 35.0427C255.783 34.4037 258.786 29.4834 261.662 24.1159C268.307 11.5916 267.924 11.8472 279.682 11.8472C287.477 11.8472 288.436 11.975 288.436 12.9335C288.436 13.5086 285.944 18.5566 282.94 24.1159C279.937 29.6751 277.637 34.6593 277.829 35.1705C278.276 36.4485 281.407 36.3846 283.196 35.1066C283.963 34.5954 285.624 32.1672 286.838 29.739C288.052 27.3109 289.65 25.0105 290.353 24.6271C291.12 24.1798 297.765 24.052 309.331 24.1159L327.095 24.3076L326.903 29.2917C326.776 32.4867 326.967 34.5954 327.478 35.2344C328.117 36.0012 332.463 36.129 355.019 36.129C372.144 36.129 382.24 35.8734 383.071 35.49C384.605 34.6593 386.394 31.2087 385.947 29.9946C385.691 29.2278 381.729 29.1001 361.92 29.1001C339.428 29.1001 338.277 29.0362 338.277 27.9499C338.277 27.3109 338.916 26.1607 339.747 25.3939C341.217 23.9881 341.6 23.9881 360.451 23.9881C371.058 23.9881 380.196 23.7964 380.771 23.6047C381.985 23.0935 384.477 18.4288 383.966 17.5981C383.71 17.2147 376.042 16.9591 364.412 16.9591C347.543 16.9591 345.243 16.8313 344.859 15.9368C344.667 15.3617 345.051 14.3393 345.882 13.5725C347.223 12.1667 347.543 12.1667 377.703 11.8472L408.184 11.5277L409.653 9.3551C410.484 8.14101 411.059 6.67132 410.995 6.16012C410.803 5.26553 392.528 5.13773 228.051 5.00993C127.537 4.94603 44.4675 5.20163 43.509 5.45723ZM90.1556 12.5501C90.7307 13.1252 90.539 14.0837 89.3249 16.384C87.7913 19.5151 87.7913 19.5151 86.5133 18.2371C85.2993 17.023 84.3408 16.9591 65.746 16.9591C47.918 16.9591 46.2566 16.8952 46.2566 15.8729C46.2566 15.2978 46.8956 14.1476 47.6624 13.3169L49.0043 11.8472H69.2605C83.574 11.8472 89.6444 12.0389 90.1556 12.5501ZM134.246 12.8696C134.374 13.253 133.863 14.3393 133.16 15.2339L131.818 16.9591H114.565H97.3763V15.4256C97.3763 12.1028 98.7821 11.9111 117.121 12.0389C128.559 12.1028 134.118 12.3584 134.246 12.8696ZM185.558 12.8057C185.558 13.892 177.954 27.9499 176.995 28.5889C176.612 28.8445 167.602 29.1001 156.995 29.1001C138.08 29.1001 137.633 29.1001 137.633 27.8221C137.633 27.1192 138.208 25.969 138.911 25.2661C140.125 24.052 141.02 23.9881 157.634 23.9881C174.95 23.9881 175.142 23.9881 176.42 22.5184C178.209 20.6014 179.295 18.3649 178.848 17.5981C178.593 17.2147 171.755 16.9591 161.212 16.9591C144.662 16.9591 144.023 16.8952 144.023 15.7451C144.023 15.0422 144.79 13.892 145.684 13.1891C147.346 11.9111 148.112 11.8472 166.452 11.8472C182.81 11.8472 185.558 11.975 185.558 12.8057ZM338.405 13.4447C338.277 14.1476 337.702 15.2339 337.191 15.809C336.233 16.8313 334.38 16.9591 315.465 16.9591C295.529 16.9591 294.826 16.8952 294.826 15.7451C294.826 15.0422 295.593 13.892 296.551 13.1891C298.149 11.8472 298.788 11.8472 318.405 11.975C338.214 12.1667 338.597 12.1667 338.405 13.4447Z" fill="black"/>
<path d="M387.097 17.4703C386.394 17.9176 383.646 22.9018 383.646 23.6686C383.646 23.8603 384.285 23.9881 385.116 23.9881C386.139 23.9881 386.969 23.1574 388.247 20.857C389.206 19.1956 389.845 17.5981 389.589 17.3425C389.078 16.8314 387.992 16.8953 387.097 17.4703Z" fill="black"/>
<path d="M9.45057 29.6112C8.74768 30.0585 6 35.0427 6 35.8095C6 36.0012 6.70289 36.129 7.46969 36.129C8.61988 36.129 9.38668 35.3622 10.6647 32.9979C11.6232 31.3365 12.1983 29.739 11.9427 29.4834C11.4315 28.9722 10.3452 28.9722 9.45057 29.6112Z" fill="black"/>
</g>
<defs>
<filter id="filter0_f_31_10" x="0" y="-1" width="417" height="43.129" filterUnits="userSpaceOnUse" color-interpolation-filters="sRGB">
<feFlood flood-opacity="0" result="BackgroundImageFix"/>
<feBlend mode="normal" in="SourceGraphic" in2="BackgroundImageFix" result="shape"/>
<feGaussianBlur stdDeviation="3" result="effect1_foregroundBlur_31_10"/>
</filter>
</defs>
</svg>
