<svg width="38" height="27" viewBox="0 0 38 27" fill="none" xmlns="http://www.w3.org/2000/svg">
<path d="M37.2052 4.21685C36.9905 3.40139 36.5671 2.65711 35.9775 2.05855C35.3878 1.46 34.6526 1.02817 33.8453 0.806328C30.8829 1.9034e-07 19 0 19 0C19 0 7.11708 1.9034e-07 4.15308 0.806328C3.34623 1.02856 2.61138 1.46054 2.02204 2.05906C1.4327 2.65758 1.00952 3.40165 0.794833 4.21685C0 7.22501 0 13.5 0 13.5C0 13.5 0 19.775 0.794833 22.7831C1.00951 23.5986 1.43288 24.3429 2.02254 24.9415C2.61219 25.54 3.34745 25.9718 4.15467 26.1937C7.11708 27 19 27 19 27C19 27 30.8829 27 33.8469 26.1937C34.6542 25.972 35.3895 25.5402 35.9792 24.9416C36.5689 24.343 36.9922 23.5987 37.2068 22.7831C38 19.775 38 13.5 38 13.5C38 13.5 38 7.22501 37.2052 4.21685ZM15.1129 19.197V7.80302L25.0452 13.5L15.1129 19.197Z" fill="#898989"/>
</svg>
