<svg width="523" height="41" viewBox="0 0 523 41" fill="none" xmlns="http://www.w3.org/2000/svg">
<path d="M48.4376 0.590496C44.3117 1.82825 40.9285 5.21146 37.3803 11.6478C33.8321 17.9191 32.9244 22.21 34.9048 23.4477C35.3999 23.7778 47.1998 24.2729 60.9802 24.5205C77.8962 24.768 86.2305 25.2631 86.3955 25.8407C86.5605 26.3358 85.9004 27.7386 84.9927 28.8939L83.2598 31.1218H48.8502C16.0909 31.1218 14.2755 31.2044 11.8 32.7722C9.15943 34.34 7.5916 37.6407 8.66432 39.291C8.99439 39.9512 24.2601 40.1987 57.0194 40.1987C97.7003 40.1987 105.209 40.0337 107.272 38.961C108.84 38.1358 110.821 35.5778 113.131 31.1218L116.679 24.5205H138.794C164.044 24.5205 162.641 23.9429 158.35 31.947C153.729 40.6113 147.293 39.7861 220.156 40.0337C281.466 40.1987 284.024 40.1162 286.995 38.6309C288.645 37.8057 290.873 36.1554 291.781 35.0827C293.431 33.3498 296.237 28.4813 296.237 27.4086C296.237 27.161 293.431 26.996 289.965 26.996C283.777 26.996 283.612 27.0785 280.971 29.9666L278.248 32.9372L258.691 32.8547C245.324 32.8547 238.722 32.5246 237.98 31.8645C235.999 30.2142 236.659 27.3261 240.785 19.8995C243.838 14.2058 245.489 12.2254 248.294 10.3275L252.007 8.01704H271.729H291.368L291.121 10.6576L290.873 13.3807L297.557 13.6282C303.911 13.8758 304.241 13.7932 305.148 11.8128C306.386 9.08976 308.119 8.7597 318.021 9.00725C324.458 9.17228 326.355 9.50235 327.016 10.5751C327.676 11.6478 326.355 14.7009 321.074 24.603C317.361 31.5344 314.473 37.8057 314.555 38.4659C314.886 40.3638 319.341 40.5288 321.569 38.7959C322.56 37.9708 326.438 31.6169 330.151 24.6855C338.733 8.51214 338.238 8.84221 353.421 8.84221C363.488 8.84221 364.726 9.00725 364.726 10.245C364.726 10.9877 361.508 17.5065 357.629 24.6855C353.751 31.8645 350.78 38.3008 351.028 38.961C351.606 40.6113 355.649 40.5288 357.959 38.8785C358.95 38.2183 361.095 35.0827 362.663 31.947C364.231 28.8114 366.294 25.8407 367.201 25.3456C368.192 24.768 376.773 24.603 391.709 24.6855L414.649 24.9331L414.401 31.3694C414.236 35.4953 414.484 38.2183 415.144 39.0435C415.969 40.0337 421.58 40.1987 450.709 40.1987C472.823 40.1987 485.861 39.8687 486.934 39.3736C488.914 38.3008 491.225 33.8449 490.647 32.2771C490.317 31.2869 485.201 31.1218 459.621 31.1218C430.575 31.1218 429.089 31.0393 429.089 29.6365C429.089 28.8114 429.914 27.3261 430.987 26.3358C432.885 24.5205 433.38 24.5205 457.723 24.5205C471.421 24.5205 483.221 24.2729 483.963 24.0254C485.531 23.3652 488.749 17.3415 488.089 16.2688C487.759 15.7737 477.857 15.4436 462.839 15.4436C441.054 15.4436 438.084 15.2785 437.589 14.1233C437.341 13.3807 437.836 12.0604 438.909 11.0702C440.642 9.2548 441.054 9.2548 480.002 8.84221L519.363 8.42963L521.261 5.62404C522.334 4.05622 523.076 2.15832 522.994 1.49818C522.746 0.342945 499.146 0.17791 286.747 0.0128746C156.948 -0.0696411 49.6754 0.260429 48.4376 0.590496ZM108.675 9.7499C109.418 10.4926 109.17 11.7303 107.602 14.7009C105.622 18.7443 105.622 18.7443 103.972 17.0939C102.404 15.5261 101.166 15.4436 77.1536 15.4436C54.1313 15.4436 51.9858 15.3611 51.9858 14.0408C51.9858 13.2981 52.811 11.8128 53.8012 10.7401L55.5341 8.84221H81.692C100.176 8.84221 108.015 9.08976 108.675 9.7499ZM165.612 10.1625C165.777 10.6576 165.117 12.0604 164.209 13.2156L162.476 15.4436H140.197H118V13.4632C118 9.17228 119.815 8.92473 143.497 9.08976C158.268 9.17228 165.447 9.50235 165.612 10.1625ZM231.873 10.08C231.873 11.4828 222.054 29.6365 220.816 30.4617C220.321 30.7918 208.686 31.1218 194.988 31.1218C170.563 31.1218 169.985 31.1218 169.985 29.4715C169.985 28.5638 170.728 27.0785 171.636 26.1708C173.204 24.603 174.359 24.5205 195.813 24.5205C218.175 24.5205 218.423 24.5205 220.073 22.6226C222.384 20.1471 223.787 17.259 223.209 16.2688C222.879 15.7737 214.05 15.4436 200.434 15.4436C179.062 15.4436 178.237 15.3611 178.237 13.8758C178.237 12.9681 179.227 11.4828 180.383 10.5751C182.528 8.92473 183.518 8.84221 207.201 8.84221C228.325 8.84221 231.873 9.00725 231.873 10.08ZM429.254 10.9051C429.089 11.8128 428.347 13.2156 427.686 13.9583C426.449 15.2785 424.056 15.4436 399.631 15.4436C373.885 15.4436 372.978 15.3611 372.978 13.8758C372.978 12.9681 373.968 11.4828 375.206 10.5751C377.269 8.84221 378.094 8.84221 403.426 9.00725C429.007 9.2548 429.502 9.2548 429.254 10.9051Z" fill="#BFBFBF"/>
<path d="M492.132 16.1038C491.225 16.6814 487.677 23.1177 487.677 24.1079C487.677 24.3555 488.502 24.5205 489.574 24.5205C490.895 24.5205 491.967 23.4478 493.618 20.4772C494.856 18.3317 495.681 16.2688 495.351 15.9387C494.69 15.2786 493.288 15.3611 492.132 16.1038Z" fill="#BFBFBF"/>
<path d="M4.45593 31.782C3.54824 32.3596 0 38.7959 0 39.7861C0 40.0337 0.907689 40.1987 1.8979 40.1987C3.3832 40.1987 4.37341 39.2085 6.02375 36.1554C7.26151 34.0099 8.00417 31.947 7.6741 31.6169C7.01396 30.9568 5.61117 30.9568 4.45593 31.782Z" fill="#BFBFBF"/>
</svg>
